#!OML:ASF X:\für Bonn\!DataBase\2005_08_10_Bjorn_Final\c3d\bjorn.ASF
:FULLY-SPECIFIED
:DEGREES
63
root -0.301732 19.4261 3.61249 -178.589 -26.8457 -174.38
lowerback 6.32037 -1.01866 -2.74906
upperback 6.58747 -2.00862 -4.52046
thorax 3.20163 -1.27597 -3.0871
lowerneck -14.7145 -6.47073 -1.74863
upperneck 20.7425 -11.8066 9.94173
head 9.74808 -4.88507 2.12599
rclavicle -9.54166e-015 3.49861e-014
rhumerus -43.3462 -19.9173 -82.0113
rradius 23.7462
rwrist 22.5476
rhand -9.70653 11.0166
rfingers 7.12502
rthumb 16.2662 -18.3211
lclavicle -9.54166e-015 3.49861e-014
lhumerus 0.579805 -17.0711 74.536
lradius 85.2635
lwrist -13.3161
lhand -33.8038 -20.8483
lfingers 7.12502
lthumb -6.99021 9.01628
rfemur -45.5784 5.69045 17.4594
rtibia 82.1495
rfoot -6.53356 -5.94229
rtoes -8.13107
lfemur -17.8681 -2.76336 -14.0605
ltibia 29.2365
lfoot -8.04401 -12.1655
ltoes 0.0129183
64
root -0.283661 19.4356 3.63867 -179.169 -27.4689 -174.088
lowerback 7.04438 -1.17837 -2.82286
upperback 6.95036 -2.30938 -4.64919
thorax 3.16845 -1.45293 -3.15741
lowerneck -14.8372 -6.53134 -1.60334
upperneck 20.4292 -12.0212 10.4351
head 9.70598 -4.93645 2.23567
rclavicle -2.94201e-014 7.63333e-014
rhumerus -43.2181 -19.4588 -82.5957
rradius 23.9544
rwrist 22.3813
rhand -9.86158 11.0509
rfingers 7.12502
rthumb 16.1169 -18.2989
lclavicle -2.94201e-014 7.63333e-014
lhumerus 2.87927 -16.8412 74.677
lradius 86.3698
lwrist -13.2157
lhand -34.4246 -20.5267
lfingers 7.12502
lthumb -7.58942 9.31714
rfemur -47.3137 5.78995 17.4197
rtibia 84.9294
rfoot -6.6205 -4.76368
rtoes -9.89339
lfemur -17.4335 -2.93556 -13.8001
ltibia 28.9062
lfoot -7.6815 -12.6193
ltoes 0.314792
65
root -0.264587 19.4459 3.66438 -179.752 -28.1251 -173.79
lowerback 7.8022 -1.35648 -2.92552
upperback 7.29894 -2.64017 -4.7553
thorax 3.10428 -1.64663 -3.18053
lowerneck -14.9232 -6.57359 -1.52596
upperneck 20.1361 -12.203 10.9454
head 9.66831 -4.97924 2.36727
rclavicle 0 3.49861e-014
rhumerus -43.1539 -18.8492 -83.1739
rradius 24.194
rwrist 22.1569
rhand -10.1352 11.1174
rfingers 7.12502
rthumb 15.8534 -18.2536
lclavicle 0 3.49861e-014
lhumerus 5.34128 -16.5327 75.0197
lradius 87.22
lwrist -13.2841
lhand -34.9721 -20.4506
lfingers 7.12502
lthumb -8.11787 9.37348
rfemur -49.0824 5.83269 17.36
rtibia 87.6665
rfoot -6.64736 -3.6116
rtoes -12.2629
lfemur -16.9875 -3.16234 -13.531
ltibia 28.5313
lfoot -7.26709 -13.0919
ltoes 0.819574
66
root -0.245016 19.4602 3.69034 -180.424 -28.7642 -173.441
lowerback 8.64012 -1.51577 -2.99344
upperback 7.66633 -2.95586 -4.86004
thorax 3.01711 -1.83417 -3.21518
lowerneck -14.9124 -6.62685 -1.48103
upperneck 19.7663 -12.3859 11.4861
head 9.59112 -5.03121 2.51693
rclavicle 1.51076e-014 9.85972e-014
rhumerus -43.1196 -18.2485 -83.7426
rradius 24.4582
rwrist 21.9477
rhand -10.3495 11.1728
rfingers 7.12502
rthumb 15.647 -18.2145
lclavicle 1.51076e-014 9.85972e-014
lhumerus 7.88241 -16.261 75.5075
lradius 87.9393
lwrist -13.4606
lhand -35.4914 -20.6125
lfingers 7.12502
lthumb -8.61904 9.19152
rfemur -50.792 5.85484 17.3364
rtibia 90.3219
rfoot -6.64287 -2.50542
rtoes -14.5843
lfemur -16.4355 -3.42394 -13.2288
ltibia 28.0908
lfoot -6.86097 -13.4801
ltoes 1.01952
67
root -0.224445 19.4747 3.71723 -181.205 -29.4121 -173.108
lowerback 9.60451 -1.6629 -3.0734
upperback 8.08918 -3.27741 -4.98071
thorax 2.9217 -2.03122 -3.25126
lowerneck -14.9254 -6.68162 -1.46159
upperneck 19.369 -12.5634 12.0498
head 9.51347 -5.08221 2.67783
rclavicle 5.48646e-014 7.95139e-014
rhumerus -43.0568 -17.6918 -84.2883
rradius 24.7077
rwrist 21.7179
rhand -10.5702 11.2879
rfingers 7.12502
rthumb 15.4345 -18.1158
lclavicle 5.48646e-014 7.95139e-014
lhumerus 10.3705 -16.0491 76.083
lradius 88.6756
lwrist -13.6606
lhand -35.9887 -21.0788
lfingers 7.12502
lthumb -9.09886 8.7049
rfemur -52.3801 5.8093 17.2697
rtibia 92.892
rfoot -6.52207 -1.28688
rtoes -17.3122
lfemur -15.7313 -3.70882 -12.9647
ltibia 27.5896
lfoot -6.44853 -13.8589
ltoes 1.12438
68
root -0.191716 19.4904 3.74344 -182.017 -30.0486 -172.748
lowerback 10.6488 -1.78286 -3.24819
upperback 8.512 -3.5828 -5.07649
thorax 2.79436 -2.22744 -3.20011
lowerneck -14.8688 -6.74262 -1.51657
upperneck 18.9122 -12.7368 12.6804
head 9.41333 -5.13896 2.87539
rclavicle -4.6118e-014 1.59028e-014
rhumerus -43.0541 -17.0202 -84.8677
rradius 25.0308
rwrist 21.4293
rhand -10.7507 11.4248
rfingers 7.12502
rthumb 15.2606 -17.9923
lclavicle -4.6118e-014 1.59028e-014
lhumerus 12.7869 -15.9089 76.7475
lradius 89.4281
lwrist -13.8816
lhand -36.4378 -21.73
lfingers 7.12502
lthumb -9.53219 8.0344
rfemur -54.0097 5.71723 17.2452
rtibia 95.3849
rfoot -6.26233 -0.070944
rtoes -20.0262
lfemur -15.0118 -3.87683 -12.6446
ltibia 27.0313
lfoot -5.95463 -14.3448
ltoes 1.38773
69
root -0.156732 19.5062 3.77019 -182.852 -30.7196 -172.359
lowerback 11.7584 -1.921 -3.44693
upperback 8.91196 -3.92204 -5.12653
thorax 2.61715 -2.44225 -3.07384
lowerneck -14.787 -6.79499 -1.7412
upperneck 18.4883 -12.8721 13.3584
head 9.33266 -5.18653 3.12226
rclavicle 3.26007e-014 3.18055e-014
rhumerus -43.1048 -16.1227 -85.4587
rradius 25.4013
rwrist 21.018
rhand -10.9754 11.4673
rfingers 7.12502
rthumb 15.0441 -17.9661
lclavicle 3.26007e-014 3.18055e-014
lhumerus 15.1585 -15.8166 77.5244
lradius 90.1344
lwrist -14.0948
lhand -36.794 -22.4821
lfingers 7.12502
lthumb -9.87593 7.26629
rfemur -55.6481 5.50826 17.2166
rtibia 97.7736
rfoot -5.91919 1.17725
rtoes -22.5227
lfemur -14.2811 -4.11091 -12.2989
ltibia 26.4464
lfoot -5.40782 -14.7926
ltoes 1.89337
70
root -0.121561 19.5215 3.79552 -183.64 -31.3837 -171.963
lowerback 12.7987 -2.02941 -3.58327
upperback 9.33037 -4.22233 -5.23349
thorax 2.49724 -2.63681 -3.0448
lowerneck -14.7222 -6.86427 -1.8711
upperneck 18.012 -13.0504 14.0543
head 9.23925 -5.25205 3.35189
rclavicle 7.15625e-014 1.24042e-013
rhumerus -43.1828 -15.4247 -86.0529
rradius 25.7908
rwrist 20.6597
rhand -11.1279 11.5917
rfingers 7.12502
rthumb 14.8973 -17.8527
lclavicle 7.15625e-014 1.24042e-013
lhumerus 17.5827 -15.9454 78.2409
lradius 90.833
lwrist -14.2202
lhand -36.9966 -23.1962
lfingers 7.12502
lthumb -10.0714 6.54277
rfemur -57.3724 5.26592 17.1259
rtibia 100.059
rfoot -5.43859 2.48198
rtoes -24.2837
lfemur -13.6033 -4.32675 -11.95
ltibia 25.8467
lfoot -4.84427 -15.2381
ltoes 2.34483
71
root -0.0851938 19.5368 3.8202 -184.414 -32.0522 -171.536
lowerback 13.8185 -2.14638 -3.76451
upperback 9.75291 -4.5385 -5.27012
thorax 2.40752 -2.84309 -2.91168
lowerneck -14.6767 -6.93827 -2.16544
upperneck 17.5164 -13.194 14.7887
head 9.15523 -5.30876 3.62526
rclavicle -8.42847e-014 -9.54166e-015
rhumerus -43.1958 -14.5963 -86.5425
rradius 26.1173
rwrist 20.2515
rhand -11.2769 11.7534
rfingers 7.12502
rthumb 14.7538 -17.7015
lclavicle -8.42847e-014 -9.54166e-015
lhumerus 19.9037 -16.142 79.002
lradius 91.588
lwrist -14.3748
lhand -37.2109 -23.6869
lfingers 7.12502
lthumb -10.2781 6.04192
rfemur -59.1536 4.98926 17.0165
rtibia 102.224
rfoot -4.82956 3.7417
rtoes -25.1753
lfemur -12.9703 -4.5199 -11.5787
ltibia 25.2518
lfoot -4.32384 -15.6888
ltoes 2.58577
72
root -0.0489136 19.5507 3.84361 -185.212 -32.7389 -171.12
lowerback 14.907 -2.2535 -3.92346
upperback 10.1681 -4.85419 -5.33946
thorax 2.27711 -3.04976 -2.81489
lowerneck -14.6072 -7.01567 -2.47749
upperneck 17.0631 -13.3521 15.5376
head 9.08782 -5.37505 3.90477
rclavicle -4.77083e-014 -7.95139e-014
rhumerus -43.308 -13.6761 -87.096
rradius 26.5412
rwrist 19.6898
rhand -11.4047 11.8579
rfingers 7.12502
rthumb 14.6306 -17.606
lclavicle -4.77083e-014 -7.95139e-014
lhumerus 22.103 -16.4967 79.696
lradius 92.3516
lwrist -14.5077
lhand -37.3716 -23.9756
lfingers 7.12502
lthumb -10.4331 5.74549
rfemur -60.8554 4.6359 16.8643
rtibia 104.263
rfoot -4.15281 4.9427
rtoes -25.3251
lfemur -12.3083 -4.74248 -11.2361
ltibia 24.6463
lfoot -3.7217 -16.1346
ltoes 3.14234
73
root -0.0120443 19.5651 3.86672 -186.048 -33.4256 -170.653
lowerback 16.0264 -2.35163 -4.05623
upperback 10.598 -5.16408 -5.38121
thorax 2.15504 -3.25534 -2.69763
lowerneck -14.4987 -7.10296 -2.8544
upperneck 16.5212 -13.492 16.3166
head 8.99039 -5.44214 4.20823
rclavicle 6.67916e-014 5.725e-014
rhumerus -43.3975 -12.7581 -87.5963
rradius 26.9615
rwrist 19.0802
rhand -11.5128 11.9611
rfingers 7.12502
rthumb 14.5264 -17.5104
lclavicle 6.67916e-014 5.725e-014
lhumerus 24.2522 -16.9879 80.2959
lradius 93.1381
lwrist -14.6266
lhand -37.5247 -23.9482
lfingers 7.12502
lthumb -10.5808 5.76541
rfemur -62.4937 4.28798 16.757
rtibia 106.171
rfoot -3.45535 5.98422
rtoes -25.2658
lfemur -11.6511 -4.9587 -10.8475
ltibia 24.0466
lfoot -3.11863 -16.5689
ltoes 3.75308
74
root 0.0254951 19.579 3.88847 -186.916 -34.1247 -170.152
lowerback 17.1812 -2.43089 -4.13759
upperback 11.0305 -5.45271 -5.43118
thorax 2.02166 -3.44975 -2.61259
lowerneck -14.3942 -7.20903 -3.24975
upperneck 15.9924 -13.6726 17.1468
head 8.91211 -5.52894 4.52568
rclavicle -1.31993e-013 -1.27222e-013
rhumerus -43.571 -12.0332 -88.0252
rradius 27.4008
rwrist 18.5959
rhand -11.5812 12.0955
rfingers 7.12502
rthumb 14.4606 -17.3807
lclavicle -1.31993e-013 -1.27222e-013
lhumerus 26.4158 -17.6561 80.793
lradius 93.9102
lwrist -14.716
lhand -37.6531 -23.5808
lfingers 7.12502
lthumb -10.7047 6.12644
rfemur -64.1061 3.87924 16.6503
rtibia 107.98
rfoot -2.73335 6.92732
rtoes -25.1426
lfemur -10.9978 -5.18909 -10.4474
ltibia 23.4626
lfoot -2.53969 -17.0185
ltoes 4.24365
